<svg data-v-2cb57da0="" version="1.0" xmlns="http://www.w3.org/2000/svg" xmlns:xlink="http://www.w3.org/1999/xlink" width="100%" height="100%" viewBox="0 0 340.000000 250.000000" preserveAspectRatio="xMidYMid meet" color-interpolation-filters="sRGB" style="margin: auto;" id="svgg"><rect data-v-2cb57da0="" x="0" y="0" width="100%" height="100%" fill="#3D85C6" fill-opacity="1" class="background"/> <rect data-v-2cb57da0="" x="0" y="0" width="100%" height="100%" fill="url(#watermark)" fill-opacity="1" class="watermarklayer"/> <g data-v-2cb57da0="" fill="#f2dac1" class="basesvg" transform="translate(111.59600067138672,90.19802474975586)"><g fill-rule="" class="tp-name" transform="translate(0,0)"><g transform="scale(1.2)"><g><g filter="url(#text-effect-stroke-shadow-_N4uQZTGmMI1_0WL-P89Z)" stroke="#333333" stroke-width="3" stroke-linecap="round" stroke-linejoin="round" paint-order="stroke" data-gra-ignore-stroke="true"><path d="M15.67-24.17C15.67-26.68 15.41-34.67 13.11-36.05 11.93-36.77 10.96-36.72 9.63-36.72 8.65-36.72 7.78-36.56 6.96-36.1 4.15-34.51 4.05-24.94 4.05-21.97 4.05-19.77 4.15-17.62 4.15-15.41 4.15-12.75 4.25-2.66 6.66-1.28 7.73-0.67 9.06-0.61 10.29-0.61 12.14-0.61 13.62-1.43 14.44-3.12 15.52-5.33 15.67-12.65 15.67-15.26ZM51.82-30.42C51.82-30.98 51.67-33.13 51.52-33.59 50.13-37.38 38.46-36.77 35.33-36.77 32.67-36.77 25.3-36.61 23.4-34.77 22.63-34 22.43-31.6 22.43-30.52 22.43-25.66 30.42-30.88 31.44-25.4 31.65-24.17 31.7-22.89 31.7-21.66 31.7-19.05 31.6-16.49 31.6-13.88 31.6-11.11 31.54-2.61 34.11-1.08 34.98-0.56 36.26-0.61 37.28-0.61 38.46-0.61 39.89-0.56 40.81-1.43 42.45-3.02 42.61-13.67 42.61-16.23 42.61-18.33 42.5-20.38 42.5-22.48 42.5-25.55 43.12-28.37 46.81-28.37 47.57-28.37 48.29-28.27 49.06-28.27 50.54-28.27 51.82-28.68 51.82-30.42ZM63.81-23.25C68.62-23.25 68.42-31.08 68.42-34.36 68.42-38.51 67.54-39.17 63.5-39.17 60.22-39.17 58.02-38.71 58.02-34.87 58.02-31.6 57.87-23.25 62.73-23.25ZM88.69-29.55C90.59-29.55 92.48-29.14 94.33-28.73 95.76-28.37 97.35-27.91 98.83-27.91 99.7-27.91 100.17-28.32 100.17-29.19 100.17-37.13 94.53-37.23 88.28-37.23 81.58-37.23 74.41-33.54 74.41-26.01 74.41-20.28 80.19-16.28 85.21-14.85 86.7-14.44 88.28-14.18 89.56-13.26 90.44-12.65 90.74-11.88 90.74-10.81 90.74-8.5 88.39-7.83 86.49-7.83 84.55-7.83 82.65-8.4 80.81-8.96 79.32-9.42 77.74-10.09 76.15-10.09 75.58-10.09 75.53-9.63 75.53-9.17 75.53-0.97 81.17-0.05 87.98-0.05 94.89-0.05 101.39-4.71 101.39-12.03 101.39-23.35 84.96-21.51 84.96-26.73 84.96-28.88 86.85-29.55 88.69-29.55Z" transform="translate(-4.050000190734863, 39.16999816894531)"/></g><defs><filter id="text-effect-stroke-shadow-_N4uQZTGmMI1_0WL-P89Z" filterUnits="objectBoundingBox" width="2" height="2" x="-0.2" y="-0.2"><feDropShadow dx="3" dy="1" stdDeviation="0" flood-color="#fca739" flood-opacity="1"/></filter></defs></g></g></g> <g data-gra="path-slogan" fill-rule="" class="tp-slogan" fill="#f2dac1" transform="translate(22.194000244140625,54.944000244140625)"><!----> <!----> <g transform="scale(1, 1)"><g transform="scale(1.3600000000000003)"><path d="M8.39-8.67L3.70-8.67L3.70-7.73L8.39-7.73L8.39-8.67ZM8.39-6.98L3.70-6.98L3.70-6L8.39-6L8.39-6.98ZM2.81-4.41L2.81-4.41L9.09-4.41Q10.17-4.41 11.11-4.50L11.11-4.50L11.11-3.47Q10.31-3.56 9.09-3.56L9.09-3.56L6.42-3.56L6.42-2.44L7.73-2.44Q8.72-2.44 9.84-2.53L9.84-2.53L9.84-1.55Q9.38-1.59 7.78-1.59L7.78-1.59L6.42-1.59L6.42-0.14Q8.67-0.09 9.33-0.14L9.33-0.14Q10.13-0.14 11.44-0.28L11.44-0.28Q10.97 0.28 10.78 0.84L10.78 0.84Q5.95 0.75 5.06 0.38L5.06 0.38Q3.56-0.09 3.09-1.31L3.09-1.31Q2.34 0.05 1.41 0.98L1.41 0.98Q0.98 0.61 0.28 0.38L0.28 0.38Q2.34-0.98 2.72-3.23L2.72-3.23Q4.17-3 4.03-2.86L4.03-2.86Q4.03-2.81 3.89-2.67L3.89-2.67Q3.75-2.58 3.70-2.44L3.70-2.44Q3.66-2.39 3.61-2.30L3.61-2.30Q3.52-2.11 3.47-1.97L3.47-1.97Q4.13-0.75 5.44-0.28L5.44-0.28L5.44-3.56L2.77-3.56Q1.78-3.56 0.89-3.47L0.89-3.47L0.89-4.55Q1.73-4.41 2.81-4.41ZM2.67-9.52L2.67-9.52Q3.33-9.42 4.17-9.42L4.17-9.42L7.59-9.42Q8.30-9.42 9.47-9.52L9.47-9.52Q9.38-8.77 9.42-8.39L9.42-8.39L9.42-6.47Q9.38-5.67 9.52-5.16L9.52-5.16Q8.63-5.25 8.25-5.25L8.25-5.25L3.80-5.25Q3.33-5.25 2.63-5.16L2.63-5.16Q2.72-5.72 2.72-6.38L2.72-6.38L2.72-8.30Q2.72-8.77 2.67-9.52ZM19.48-9.61L19.48-9.61Q19.63-9.61 19.91-9.56L19.91-9.56Q20.89-9.56 20.84-9.42L20.84-9.42Q20.84-9.33 20.75-9.23L20.75-9.23Q20.52-8.95 20.52-8.63L20.52-8.63L20.52-5.16L23.61-5.16Q24.88-5.16 25.11-5.20L25.11-5.20L25.11-4.22Q24.88-4.27 23.61-4.27L23.61-4.27L22.44-4.27Q22.72-1.17 25.63-0.28L25.63-0.28Q24.92 0.05 24.59 0.70L24.59 0.70Q21.97-0.84 21.55-4.27L21.55-4.27L20.52-4.27L20.52-0.52Q20.98-0.84 21.83-1.59L21.83-1.59L22.30-0.61Q21.83-0.42 20 0.89L20 0.89Q19.72 1.08 19.63 1.17L19.63 1.17L19.11 0.33Q19.63 0.14 19.58-1.27L19.58-1.27L19.58-4.27L19.30-4.27Q18.50-4.27 18.27-4.22L18.27-4.22Q18.22-4.22 18.22-4.22L18.22-4.22L18.22-5.20Q18.22-5.20 18.27-5.20L18.27-5.20Q18.50-5.16 19.30-5.16L19.30-5.16L19.58-5.16L19.58-8.63Q19.58-9.33 19.48-9.61ZM23.14-9.23L23.14-9.23Q23.28-9.14 23.66-8.95L23.66-8.95Q24.41-8.53 24.31-8.44L24.31-8.44Q24.31-8.34 24.17-8.25L24.17-8.25Q23.84-8.11 23.56-7.69L23.56-7.69Q22.77-6.75 21.88-5.53L21.88-5.53Q21.50-5.77 20.84-6L20.84-6Q22.20-7.13 23.14-9.23ZM14.84-8.06L14.84-9.05Q15.03-8.95 16.06-8.95L16.06-8.95L17.09-8.95Q17.80-8.95 18.27-9.05L18.27-9.05Q18.17-8.86 18.17-7.92L18.17-7.92L18.17-6.42Q18.17-5.67 18.27-5.44L18.27-5.44Q17.89-5.53 17.33-5.53L17.33-5.53L15.92-5.53L15.92-3.84L17.19-3.84Q18.22-3.89 18.22-3.89L18.22-3.89Q18.08-2.39 17.98-0.33L17.98-0.33Q17.75 0.80 16.02 1.08L16.02 1.08Q15.88 0.38 15.41-0.14L15.41-0.14Q16.30 0 16.72-0.14L16.72-0.14Q17.09-0.28 17.14-2.16L17.14-2.16Q17.14-2.72 17.14-3.05L17.14-3.05L16.02-3.05Q15.55-3.05 15.17-2.95L15.17-2.95Q15.03-2.95 14.98-2.95L14.98-2.95Q15.08-3.42 15.08-3.89L15.08-3.89L15.08-5.44Q15.08-6.23 14.98-6.42L14.98-6.42Q15.45-6.33 15.97-6.33L15.97-6.33L17.33-6.33L17.33-8.16L16.06-8.16Q15.03-8.16 14.84-8.06L14.84-8.06ZM33.48-9.61L33.48-9.61Q33.63-9.61 33.91-9.56L33.91-9.56Q34.89-9.56 34.84-9.42L34.84-9.42Q34.84-9.33 34.75-9.23L34.75-9.23Q34.52-8.95 34.52-8.63L34.52-8.63L34.52-5.16L37.61-5.16Q38.88-5.16 39.11-5.20L39.11-5.20L39.11-4.22Q38.88-4.27 37.61-4.27L37.61-4.27L36.44-4.27Q36.72-1.17 39.63-0.28L39.63-0.28Q38.92 0.05 38.59 0.70L38.59 0.70Q35.97-0.84 35.55-4.27L35.55-4.27L34.52-4.27L34.52-0.52Q34.98-0.84 35.83-1.59L35.83-1.59L36.30-0.61Q35.83-0.42 34 0.89L34 0.89Q33.72 1.08 33.63 1.17L33.63 1.17L33.11 0.33Q33.63 0.14 33.58-1.27L33.58-1.27L33.58-4.27L33.30-4.27Q32.50-4.27 32.27-4.22L32.27-4.22Q32.22-4.22 32.22-4.22L32.22-4.22L32.22-5.20Q32.22-5.20 32.27-5.20L32.27-5.20Q32.50-5.16 33.30-5.16L33.30-5.16L33.58-5.16L33.58-8.63Q33.58-9.33 33.48-9.61ZM37.14-9.23L37.14-9.23Q37.28-9.14 37.66-8.95L37.66-8.95Q38.41-8.53 38.31-8.44L38.31-8.44Q38.31-8.34 38.17-8.25L38.17-8.25Q37.84-8.11 37.56-7.69L37.56-7.69Q36.77-6.75 35.88-5.53L35.88-5.53Q35.50-5.77 34.84-6L34.84-6Q36.20-7.13 37.14-9.23ZM28.84-8.06L28.84-9.05Q29.03-8.95 30.06-8.95L30.06-8.95L31.09-8.95Q31.80-8.95 32.27-9.05L32.27-9.05Q32.17-8.86 32.17-7.92L32.17-7.92L32.17-6.42Q32.17-5.67 32.27-5.44L32.27-5.44Q31.89-5.53 31.33-5.53L31.33-5.53L29.92-5.53L29.92-3.84L31.19-3.84Q32.22-3.89 32.22-3.89L32.22-3.89Q32.08-2.39 31.98-0.33L31.98-0.33Q31.75 0.80 30.02 1.08L30.02 1.08Q29.88 0.38 29.41-0.14L29.41-0.14Q30.30 0 30.72-0.14L30.72-0.14Q31.09-0.28 31.14-2.16L31.14-2.16Q31.14-2.72 31.14-3.05L31.14-3.05L30.02-3.05Q29.55-3.05 29.17-2.95L29.17-2.95Q29.03-2.95 28.98-2.95L28.98-2.95Q29.08-3.42 29.08-3.89L29.08-3.89L29.08-5.44Q29.08-6.23 28.98-6.42L28.98-6.42Q29.45-6.33 29.97-6.33L29.97-6.33L31.33-6.33L31.33-8.16L30.06-8.16Q29.03-8.16 28.84-8.06L28.84-8.06ZM46.03-9.23L46.03-9.23Q46.41-9.19 47.48-9.19L47.48-9.19Q48.38-9.19 48.94-9.23L48.94-9.23Q48.52-7.27 47.91-5.39L47.91-5.39Q48.66-4.17 48.70-2.95L48.70-2.95Q48.84-1.36 47.25-1.17L47.25-1.17Q47.16-1.78 46.88-2.11L46.88-2.11Q46.88 0.14 46.97 0.84L46.97 0.84L46.03 0.84Q46.13 0.23 46.13-2.06L46.13-2.06L46.13-8.02Q46.17-8.39 46.03-9.23ZM49.13-8.06L49.13-8.91Q49.55-8.86 50.34-8.86L50.34-8.86L52.41-8.86Q53.16-8.86 53.53-8.91L53.53-8.91L53.53-8.06Q53.44-8.06 53.25-8.06L53.25-8.06Q52.97-8.11 52.73-8.11L52.73-8.11L52.73-0.38Q52.59 0.66 50.95 0.80L50.95 0.80Q50.91 0.19 50.44-0.28L50.44-0.28Q51.84-0.05 51.84-0.75L51.84-0.75L51.84-8.11L50.34-8.11Q49.55-8.11 49.13-8.06L49.13-8.06ZM42.84-8.77L42.84-8.77Q43.45-8.67 44.16-8.67L44.16-8.67Q44.81-8.67 45.42-8.72L45.42-8.72Q45.38-8.34 45.38-7.55L45.38-7.55L45.38-3.14Q45.38-1.97 45.42-1.45L45.42-1.45L44.53-1.45Q44.58-1.41 44.58-2.34L44.58-2.34L43.69-2.34Q43.69-1.03 43.73-0.61L43.73-0.61L42.80-0.61Q42.89-1.08 42.89-2.34L42.89-2.34L42.89-7.69Q42.89-8.20 42.84-8.77ZM47.95-8.44L46.88-8.44L46.88-7.64L46.88-2.25Q47.91-1.92 47.95-3.09L47.95-3.09Q47.86-4.27 47.16-5.44L47.16-5.44Q47.44-6.19 47.91-8.20L47.91-8.20Q47.95-8.34 47.95-8.44L47.95-8.44ZM44.58-7.97L43.69-7.97L43.69-3.05L44.58-3.05L44.58-7.97ZM48.98-6.80L48.98-6.80Q49.45-6.70 50.11-6.70L50.11-6.70Q50.77-6.75 51.28-6.80L51.28-6.80Q51.19-6.23 51.19-5.67L51.19-5.67L51.19-3Q51.19-2.11 51.28-1.69L51.28-1.69L50.44-1.69Q50.58-2.11 50.53-2.39L50.53-2.39L49.73-2.39Q49.73-1.88 49.78-1.36L49.78-1.36L48.98-1.36Q49.03-2.11 49.03-2.95L49.03-2.95L49.03-5.63Q49.03-6.33 48.98-6.80ZM50.53-6.09L49.73-6.09L49.73-3L50.53-3L50.53-6.09Z" transform="translate(-0.28125, 9.609375)"/></g></g></g></g><defs v-gra="od"/></svg>